<mxfile host="app.diagrams.net" modified="2024-01-10T00:00:00.000Z" agent="5.0" etag="" version="22.1.16" type="device">
  <diagram id="Recovery-Tiering-Framework" name="Recovery Tiering Framework">
    <mxGraphModel dx="2074" dy="1196" grid="1" gridSize="10" guides="1" tooltips="1" connect="1" arrows="1" fold="1" page="1" pageScale="1" pageWidth="1654" pageHeight="1169" math="0" shadow="0">
      <root>
        <mxCell id="0" />
        <mxCell id="1" parent="0" />
        
        <!-- Title -->
        <mxCell id="title" value="SIRE Recovery Tiering Framework - Business-Aligned Service Classification" style="text;html=1;strokeColor=none;fillColor=none;align=center;verticalAlign=middle;whiteSpace=wrap;rounded=0;fontSize=24;fontStyle=1;fontColor=#2F5496;" vertex="1" parent="1">
          <mxGeometry x="427" y="20" width="800" height="40" as="geometry" />
        </mxCell>
        
        <!-- Recovery Tier Legend -->
        <mxCell id="tier-legend" value="" style="rounded=1;whiteSpace=wrap;html=1;fillColor=#F2F2F2;strokeColor=#666666;strokeWidth=1;" vertex="1" parent="1">
          <mxGeometry x="20" y="80" width="300" height="200" as="geometry" />
        </mxCell>
        <mxCell id="legend-title" value="Recovery Tier Classification" style="text;html=1;strokeColor=none;fillColor=none;align=center;verticalAlign=middle;whiteSpace=wrap;rounded=0;fontSize=16;fontStyle=1;" vertex="1" parent="1">
          <mxGeometry x="70" y="90" width="200" height="25" as="geometry" />
        </mxCell>
        
        <!-- Tier 1 - Mission Critical -->
        <mxCell id="tier1-legend" value="" style="rounded=1;whiteSpace=wrap;html=1;fillColor=#FFCDD2;strokeColor=#D32F2F;strokeWidth=3;" vertex="1" parent="1">
          <mxGeometry x="30" y="125" width="25" height="20" as="geometry" />
        </mxCell>
        <mxCell id="tier1-legend-text" value="Tier 1: Mission-Critical (RTO ≤ 2hr, RPO ≤ 15min)" style="text;html=1;strokeColor=none;fillColor=none;align=left;verticalAlign=middle;whiteSpace=wrap;rounded=0;fontSize=11;fontStyle=1;" vertex="1" parent="1">
          <mxGeometry x="65" y="123" width="240" height="25" as="geometry" />
        </mxCell>
        
        <!-- Tier 2 - Business Critical -->
        <mxCell id="tier2-legend" value="" style="rounded=1;whiteSpace=wrap;html=1;fillColor=#FFE0B2;strokeColor=#F57C00;strokeWidth=3;" vertex="1" parent="1">
          <mxGeometry x="30" y="155" width="25" height="20" as="geometry" />
        </mxCell>
        <mxCell id="tier2-legend-text" value="Tier 2: Business-Critical (RTO 2-8hr, RPO 1-4hr)" style="text;html=1;strokeColor=none;fillColor=none;align=left;verticalAlign=middle;whiteSpace=wrap;rounded=0;fontSize=11;fontStyle=1;" vertex="1" parent="1">
          <mxGeometry x="65" y="153" width="240" height="25" as="geometry" />
        </mxCell>
        
        <!-- Tier 3 - Important -->
        <mxCell id="tier3-legend" value="" style="rounded=1;whiteSpace=wrap;html=1;fillColor=#C8E6C9;strokeColor=#388E3C;strokeWidth=3;" vertex="1" parent="1">
          <mxGeometry x="30" y="185" width="25" height="20" as="geometry" />
        </mxCell>
        <mxCell id="tier3-legend-text" value="Tier 3: Important (RTO 8-24hr, RPO 4-8hr)" style="text;html=1;strokeColor=none;fillColor=none;align=left;verticalAlign=middle;whiteSpace=wrap;rounded=0;fontSize=11;fontStyle=1;" vertex="1" parent="1">
          <mxGeometry x="65" y="183" width="240" height="25" as="geometry" />
        </mxCell>
        
        <!-- Tier 4 - Non-Critical -->
        <mxCell id="tier4-legend" value="" style="rounded=1;whiteSpace=wrap;html=1;fillColor=#E1F5FE;strokeColor=#0277BD;strokeWidth=3;" vertex="1" parent="1">
          <mxGeometry x="30" y="215" width="25" height="20" as="geometry" />
        </mxCell>
        <mxCell id="tier4-legend-text" value="Tier 4: Non-Critical (RTO 24-72hr, RPO 8-24hr)" style="text;html=1;strokeColor=none;fillColor=none;align=left;verticalAlign=middle;whiteSpace=wrap;rounded=0;fontSize=11;fontStyle=1;" vertex="1" parent="1">
          <mxGeometry x="65" y="213" width="240" height="25" as="geometry" />
        </mxCell>
        
        <!-- Archive Tier -->
        <mxCell id="archive-legend" value="" style="rounded=1;whiteSpace=wrap;html=1;fillColor=#F3E5F5;strokeColor=#7B1FA2;strokeWidth=3;" vertex="1" parent="1">
          <mxGeometry x="30" y="245" width="25" height="20" as="geometry" />
        </mxCell>
        <mxCell id="archive-legend-text" value="Archive: Compliance Only (RTO >72hr, Cold Storage)" style="text;html=1;strokeColor=none;fillColor=none;align=left;verticalAlign=middle;whiteSpace=wrap;rounded=0;fontSize=11;fontStyle=1;" vertex="1" parent="1">
          <mxGeometry x="65" y="243" width="240" height="25" as="geometry" />
        </mxCell>
        
        <!-- Tier 1: Mission-Critical Applications -->
        <mxCell id="tier1-container" value="Tier 1: Mission-Critical Applications" style="rounded=1;whiteSpace=wrap;html=1;fillColor=#FFCDD2;strokeColor=#D32F2F;strokeWidth=4;fontSize=16;fontStyle=1;verticalAlign=top;align=center;" vertex="1" parent="1">
          <mxGeometry x="370" y="100" width="320" height="180" as="geometry" />
        </mxCell>
        
        <!-- Core Banking System -->
        <mxCell id="core-banking" value="" style="image;aspect=fixed;html=1;points=[];align=center;fontSize=12;image=img/lib/azure2/app_services/App_Services.svg;" vertex="1" parent="1">
          <mxGeometry x="390" y="140" width="50" height="50" as="geometry" />
        </mxCell>
        <mxCell id="banking-label" value="Core Banking&#xa;Payment Processing" style="text;html=1;strokeColor=none;fillColor=none;align=center;verticalAlign=middle;whiteSpace=wrap;rounded=0;fontSize=10;fontStyle=1;" vertex="1" parent="1">
          <mxGeometry x="370" y="195" width="90" height="25" as="geometry" />
        </mxCell>
        
        <!-- E-commerce Platform -->
        <mxCell id="ecommerce" value="" style="image;aspect=fixed;html=1;points=[];align=center;fontSize=12;image=img/lib/azure2/web/App_Service_Domains.svg;" vertex="1" parent="1">
          <mxGeometry x="480" y="140" width="50" height="50" as="geometry" />
        </mxCell>
        <mxCell id="ecommerce-label" value="E-commerce Platform&#xa;Revenue Generation" style="text;html=1;strokeColor=none;fillColor=none;align=center;verticalAlign=middle;whiteSpace=wrap;rounded=0;fontSize=10;fontStyle=1;" vertex="1" parent="1">
          <mxGeometry x="460" y="195" width="90" height="25" as="geometry" />
        </mxCell>
        
        <!-- ERP System -->
        <mxCell id="erp-system" value="" style="image;aspect=fixed;html=1;points=[];align=center;fontSize=12;image=img/lib/azure2/databases/SQL_Database.svg;" vertex="1" parent="1">
          <mxGeometry x="570" y="140" width="50" height="50" as="geometry" />
        </mxCell>
        <mxCell id="erp-label" value="ERP System&#xa;Business Operations" style="text;html=1;strokeColor=none;fillColor=none;align=center;verticalAlign=middle;whiteSpace=wrap;rounded=0;fontSize=10;fontStyle=1;" vertex="1" parent="1">
          <mxGeometry x="550" y="195" width="90" height="25" as="geometry" />
        </mxCell>
        
        <!-- Real-time Trading -->
        <mxCell id="trading-system" value="" style="image;aspect=fixed;html=1;points=[];align=center;fontSize=12;image=img/lib/azure2/analytics/Stream_Analytics_Jobs.svg;" vertex="1" parent="1">
          <mxGeometry x="615" y="140" width="50" height="50" as="geometry" />
        </mxCell>
        <mxCell id="trading-label" value="Real-time Trading&#xa;Financial Markets" style="text;html=1;strokeColor=none;fillColor=none;align=center;verticalAlign=middle;whiteSpace=wrap;rounded=0;fontSize=10;fontStyle=1;" vertex="1" parent="1">
          <mxGeometry x="600" y="195" width="80" height="25" as="geometry" />
        </mxCell>
        
        <!-- Tier 1 Metrics -->
        <mxCell id="tier1-metrics" value="💰 Revenue Impact: $1M+/hour&#xa;👥 User Impact: 10,000+ users&#xa;⚡ Recovery: Premium resources&#xa;🔄 Replication: Synchronous" style="text;html=1;strokeColor=#D32F2F;fillColor=#FFEBEE;align=left;verticalAlign=middle;whiteSpace=wrap;rounded=1;fontSize=10;" vertex="1" parent="1">
          <mxGeometry x="385" y="230" width="290" height="40" as="geometry" />
        </mxCell>
        
        <!-- Tier 2: Business-Critical Applications -->
        <mxCell id="tier2-container" value="Tier 2: Business-Critical Applications" style="rounded=1;whiteSpace=wrap;html=1;fillColor=#FFE0B2;strokeColor=#F57C00;strokeWidth=4;fontSize=16;fontStyle=1;verticalAlign=top;align=center;" vertex="1" parent="1">
          <mxGeometry x="720" y="100" width="320" height="180" as="geometry" />
        </mxCell>
        
        <!-- CRM System -->
        <mxCell id="crm-system" value="" style="image;aspect=fixed;html=1;points=[];align=center;fontSize=12;image=img/lib/azure2/ai_machine_learning/Cognitive_Services.svg;" vertex="1" parent="1">
          <mxGeometry x="740" y="140" width="50" height="50" as="geometry" />
        </mxCell>
        <mxCell id="crm-label" value="CRM System&#xa;Customer Relations" style="text;html=1;strokeColor=none;fillColor=none;align=center;verticalAlign=middle;whiteSpace=wrap;rounded=0;fontSize=10;fontStyle=1;" vertex="1" parent="1">
          <mxGeometry x="720" y="195" width="90" height="25" as="geometry" />
        </mxCell>
        
        <!-- HR System -->
        <mxCell id="hr-system" value="" style="image;aspect=fixed;html=1;points=[];align=center;fontSize=12;image=img/lib/azure2/identity/Users.svg;" vertex="1" parent="1">
          <mxGeometry x="830" y="140" width="50" height="50" as="geometry" />
        </mxCell>
        <mxCell id="hr-label" value="HR System&#xa;Employee Management" style="text;html=1;strokeColor=none;fillColor=none;align=center;verticalAlign=middle;whiteSpace=wrap;rounded=0;fontSize=10;fontStyle=1;" vertex="1" parent="1">
          <mxGeometry x="810" y="195" width="90" height="25" as="geometry" />
        </mxCell>
        
        <!-- Supply Chain -->
        <mxCell id="supply-chain" value="" style="image;aspect=fixed;html=1;points=[];align=center;fontSize=12;image=img/lib/azure2/iot/IoT_Hub.svg;" vertex="1" parent="1">
          <mxGeometry x="920" y="140" width="50" height="50" as="geometry" />
        </mxCell>
        <mxCell id="supply-label" value="Supply Chain&#xa;Logistics Management" style="text;html=1;strokeColor=none;fillColor=none;align=center;verticalAlign=middle;whiteSpace=wrap;rounded=0;fontSize=10;fontStyle=1;" vertex="1" parent="1">
          <mxGeometry x="900" y="195" width="90" height="25" as="geometry" />
        </mxCell>
        
        <!-- Financial Reporting -->
        <mxCell id="financial-reporting" value="" style="image;aspect=fixed;html=1;points=[];align=center;fontSize=12;image=img/lib/azure2/analytics/Power_BI_Embedded.svg;" vertex="1" parent="1">
          <mxGeometry x="970" y="140" width="50" height="50" as="geometry" />
        </mxCell>
        <mxCell id="financial-label" value="Financial Reporting&#xa;Compliance Systems" style="text;html=1;strokeColor=none;fillColor=none;align=center;verticalAlign=middle;whiteSpace=wrap;rounded=0;fontSize=10;fontStyle=1;" vertex="1" parent="1">
          <mxGeometry x="950" y="195" width="90" height="25" as="geometry" />
        </mxCell>
        
        <!-- Tier 2 Metrics -->
        <mxCell id="tier2-metrics" value="💰 Revenue Impact: $100K-1M/hour&#xa;👥 User Impact: 1,000-10,000 users&#xa;⚡ Recovery: Standard resources&#xa;🔄 Replication: Near-synchronous" style="text;html=1;strokeColor=#F57C00;fillColor=#FFF8E1;align=left;verticalAlign=middle;whiteSpace=wrap;rounded=1;fontSize=10;" vertex="1" parent="1">
          <mxGeometry x="735" y="230" width="290" height="40" as="geometry" />
        </mxCell>
        
        <!-- Tier 3: Important Applications -->
        <mxCell id="tier3-container" value="Tier 3: Important Applications" style="rounded=1;whiteSpace=wrap;html=1;fillColor=#C8E6C9;strokeColor=#388E3C;strokeWidth=4;fontSize=16;fontStyle=1;verticalAlign=top;align=center;" vertex="1" parent="1">
          <mxGeometry x="370" y="320" width="320" height="180" as="geometry" />
        </mxCell>
        
        <!-- Document Management -->
        <mxCell id="document-mgmt" value="" style="image;aspect=fixed;html=1;points=[];align=center;fontSize=12;image=img/lib/azure2/storage/Storage_Accounts.svg;" vertex="1" parent="1">
          <mxGeometry x="390" y="360" width="50" height="40" as="geometry" />
        </mxCell>
        <mxCell id="doc-label" value="Document Management&#xa;SharePoint/OneDrive" style="text;html=1;strokeColor=none;fillColor=none;align=center;verticalAlign=middle;whiteSpace=wrap;rounded=0;fontSize=10;fontStyle=1;" vertex="1" parent="1">
          <mxGeometry x="370" y="405" width="90" height="25" as="geometry" />
        </mxCell>
        
        <!-- Collaboration Tools -->
        <mxCell id="collaboration" value="" style="image;aspect=fixed;html=1;points=[];align=center;fontSize=12;image=img/lib/azure2/general/Teams.svg;" vertex="1" parent="1">
          <mxGeometry x="480" y="360" width="50" height="50" as="geometry" />
        </mxCell>
        <mxCell id="collab-label" value="Collaboration Tools&#xa;Teams/Email" style="text;html=1;strokeColor=none;fillColor=none;align=center;verticalAlign=middle;whiteSpace=wrap;rounded=0;fontSize=10;fontStyle=1;" vertex="1" parent="1">
          <mxGeometry x="460" y="415" width="90" height="25" as="geometry" />
        </mxCell>
        
        <!-- Internal Portal -->
        <mxCell id="internal-portal" value="" style="image;aspect=fixed;html=1;points=[];align=center;fontSize=12;image=img/lib/azure2/web/App_Service_Plans.svg;" vertex="1" parent="1">
          <mxGeometry x="570" y="360" width="50" height="50" as="geometry" />
        </mxCell>
        <mxCell id="portal-label" value="Internal Portal&#xa;Intranet Systems" style="text;html=1;strokeColor=none;fillColor=none;align=center;verticalAlign=middle;whiteSpace=wrap;rounded=0;fontSize=10;fontStyle=1;" vertex="1" parent="1">
          <mxGeometry x="550" y="415" width="90" height="25" as="geometry" />
        </mxCell>
        
        <!-- Knowledge Base -->
        <mxCell id="knowledge-base" value="" style="image;aspect=fixed;html=1;points=[];align=center;fontSize=12;image=img/lib/azure2/ai_machine_learning/Search_Services.svg;" vertex="1" parent="1">
          <mxGeometry x="615" y="360" width="50" height="50" as="geometry" />
        </mxCell>
        <mxCell id="kb-label" value="Knowledge Base&#xa;Internal Wiki" style="text;html=1;strokeColor=none;fillColor=none;align=center;verticalAlign=middle;whiteSpace=wrap;rounded=0;fontSize=10;fontStyle=1;" vertex="1" parent="1">
          <mxGeometry x="600" y="415" width="80" height="25" as="geometry" />
        </mxCell>
        
        <!-- Tier 3 Metrics -->
        <mxCell id="tier3-metrics" value="💰 Revenue Impact: $10K-100K/hour&#xa;👥 User Impact: 100-1,000 users&#xa;⚡ Recovery: Basic resources&#xa;🔄 Replication: Asynchronous" style="text;html=1;strokeColor=#388E3C;fillColor=#F1F8E9;align=left;verticalAlign=middle;whiteSpace=wrap;rounded=1;fontSize=10;" vertex="1" parent="1">
          <mxGeometry x="385" y="450" width="290" height="40" as="geometry" />
        </mxCell>
        
        <!-- Tier 4: Non-Critical Applications -->
        <mxCell id="tier4-container" value="Tier 4: Non-Critical Applications" style="rounded=1;whiteSpace=wrap;html=1;fillColor=#E1F5FE;strokeColor=#0277BD;strokeWidth=4;fontSize=16;fontStyle=1;verticalAlign=top;align=center;" vertex="1" parent="1">
          <mxGeometry x="720" y="320" width="320" height="180" as="geometry" />
        </mxCell>
        
        <!-- Dev/Test Environments -->
        <mxCell id="dev-test" value="" style="image;aspect=fixed;html=1;points=[];align=center;fontSize=12;image=img/lib/azure2/devops/Azure_DevOps.svg;" vertex="1" parent="1">
          <mxGeometry x="740" y="360" width="50" height="50" as="geometry" />
        </mxCell>
        <mxCell id="devtest-label" value="Dev/Test&#xa;Environments" style="text;html=1;strokeColor=none;fillColor=none;align=center;verticalAlign=middle;whiteSpace=wrap;rounded=0;fontSize=10;fontStyle=1;" vertex="1" parent="1">
          <mxGeometry x="720" y="415" width="90" height="25" as="geometry" />
        </mxCell>
        
        <!-- Training Systems -->
        <mxCell id="training-system" value="" style="image;aspect=fixed;html=1;points=[];align=center;fontSize=12;image=img/lib/azure2/general/Learn.svg;" vertex="1" parent="1">
          <mxGeometry x="830" y="360" width="50" height="50" as="geometry" />
        </mxCell>
        <mxCell id="training-label" value="Training Systems&#xa;Learning Management" style="text;html=1;strokeColor=none;fillColor=none;align=center;verticalAlign=middle;whiteSpace=wrap;rounded=0;fontSize=10;fontStyle=1;" vertex="1" parent="1">
          <mxGeometry x="810" y="415" width="90" height="25" as="geometry" />
        </mxCell>
        
        <!-- Archive Systems -->
        <mxCell id="archive-system" value="" style="image;aspect=fixed;html=1;points=[];align=center;fontSize=12;image=img/lib/azure2/storage/StorSimple_Data_Managers.svg;" vertex="1" parent="1">
          <mxGeometry x="920" y="360" width="50" height="50" as="geometry" />
        </mxCell>
        <mxCell id="archive-label" value="Archive Systems&#xa;Historical Data" style="text;html=1;strokeColor=none;fillColor=none;align=center;verticalAlign=middle;whiteSpace=wrap;rounded=0;fontSize=10;fontStyle=1;" vertex="1" parent="1">
          <mxGeometry x="900" y="415" width="90" height="25" as="geometry" />
        </mxCell>
        
        <!-- Backup Only -->
        <mxCell id="backup-only" value="" style="image;aspect=fixed;html=1;points=[];align=center;fontSize=12;image=img/lib/azure2/storage/Backup.svg;" vertex="1" parent="1">
          <mxGeometry x="970" y="360" width="50" height="50" as="geometry" />
        </mxCell>
        <mxCell id="backup-label" value="Backup Only&#xa;Long-term Storage" style="text;html=1;strokeColor=none;fillColor=none;align=center;verticalAlign=middle;whiteSpace=wrap;rounded=0;fontSize=10;fontStyle=1;" vertex="1" parent="1">
          <mxGeometry x="950" y="415" width="90" height="25" as="geometry" />
        </mxCell>
        
        <!-- Tier 4 Metrics -->
        <mxCell id="tier4-metrics" value="💰 Revenue Impact: &lt;$10K/hour&#xa;👥 User Impact: &lt;100 users&#xa;⚡ Recovery: Cold standby&#xa;🔄 Replication: Backup only" style="text;html=1;strokeColor=#0277BD;fillColor=#E3F2FD;align=left;verticalAlign=middle;whiteSpace=wrap;rounded=1;fontSize=10;" vertex="1" parent="1">
          <mxGeometry x="735" y="450" width="290" height="40" as="geometry" />
        </mxCell>
        
        <!-- Recovery Infrastructure Mapping -->
        <mxCell id="infrastructure-title" value="Recovery Infrastructure Allocation by Tier" style="text;html=1;strokeColor=none;fillColor=none;align=center;verticalAlign=middle;whiteSpace=wrap;rounded=0;fontSize=18;fontStyle=1;fontColor=#2F5496;" vertex="1" parent="1">
          <mxGeometry x="370" y="530" width="670" height="30" as="geometry" />
        </mxCell>
        
        <!-- Infrastructure Allocation Table -->
        <mxCell id="infra-table" value="" style="rounded=1;whiteSpace=wrap;html=1;fillColor=#F8F9FA;strokeColor=#666666;strokeWidth=2;" vertex="1" parent="1">
          <mxGeometry x="370" y="570" width="670" height="260" as="geometry" />
        </mxCell>
        
        <!-- Table Headers -->
        <mxCell id="header-tier" value="Recovery Tier" style="rounded=1;whiteSpace=wrap;html=1;fillColor=#E3F2FD;strokeColor=#1976D2;strokeWidth=1;fontSize=12;fontStyle=1;" vertex="1" parent="1">
          <mxGeometry x="385" y="585" width="100" height="30" as="geometry" />
        </mxCell>
        <mxCell id="header-compute" value="Compute Resources" style="rounded=1;whiteSpace=wrap;html=1;fillColor=#E3F2FD;strokeColor=#1976D2;strokeWidth=1;fontSize=12;fontStyle=1;" vertex="1" parent="1">
          <mxGeometry x="485" y="585" width="130" height="30" as="geometry" />
        </mxCell>
        <mxCell id="header-storage" value="Storage &amp; Backup" style="rounded=1;whiteSpace=wrap;html=1;fillColor=#E3F2FD;strokeColor=#1976D2;strokeWidth=1;fontSize=12;fontStyle=1;" vertex="1" parent="1">
          <mxGeometry x="615" y="585" width="130" height="30" as="geometry" />
        </mxCell>
        <mxCell id="header-network" value="Network &amp; Security" style="rounded=1;whiteSpace=wrap;html=1;fillColor=#E3F2FD;strokeColor=#1976D2;strokeWidth=1;fontSize=12;fontStyle=1;" vertex="1" parent="1">
          <mxGeometry x="745" y="585" width="130" height="30" as="geometry" />
        </mxCell>
        <mxCell id="header-cost" value="Est. Monthly Cost" style="rounded=1;whiteSpace=wrap;html=1;fillColor=#E3F2FD;strokeColor=#1976D2;strokeWidth=1;fontSize=12;fontStyle=1;" vertex="1" parent="1">
          <mxGeometry x="875" y="585" width="100" height="30" as="geometry" />
        </mxCell>
        <mxCell id="header-automation" value="Automation Level" style="rounded=1;whiteSpace=wrap;html=1;fillColor=#E3F2FD;strokeColor=#1976D2;strokeWidth=1;fontSize=12;fontStyle=1;" vertex="1" parent="1">
          <mxGeometry x="975" y="585" width="100" height="30" as="geometry" />
        </mxCell>
        
        <!-- Tier 1 Row -->
        <mxCell id="tier1-row-label" value="Tier 1" style="rounded=1;whiteSpace=wrap;html=1;fillColor=#FFCDD2;strokeColor=#D32F2F;strokeWidth=1;fontSize=11;fontStyle=1;" vertex="1" parent="1">
          <mxGeometry x="385" y="625" width="100" height="40" as="geometry" />
        </mxCell>
        <mxCell id="tier1-compute" value="Premium SSD&#xa;Reserved Instances&#xa;Hot Standby Always" style="rounded=1;whiteSpace=wrap;html=1;fillColor=#FFF;strokeColor=#666;strokeWidth=1;fontSize=9;" vertex="1" parent="1">
          <mxGeometry x="485" y="625" width="130" height="40" as="geometry" />
        </mxCell>
        <mxCell id="tier1-storage" value="Premium Storage&#xa;Sync Replication&#xa;Immutable Backups" style="rounded=1;whiteSpace=wrap;html=1;fillColor=#FFF;strokeColor=#666;strokeWidth=1;fontSize=9;" vertex="1" parent="1">
          <mxGeometry x="615" y="625" width="130" height="40" as="geometry" />
        </mxCell>
        <mxCell id="tier1-network" value="Dedicated Firewall&#xa;Private Endpoints&#xa;WAF Premium" style="rounded=1;whiteSpace=wrap;html=1;fillColor=#FFF;strokeColor=#666;strokeWidth=1;fontSize=9;" vertex="1" parent="1">
          <mxGeometry x="745" y="625" width="130" height="40" as="geometry" />
        </mxCell>
        <mxCell id="tier1-cost" value="$15,000-&#xa;50,000/month" style="rounded=1;whiteSpace=wrap;html=1;fillColor=#FFF;strokeColor=#666;strokeWidth=1;fontSize=9;fontStyle=1;" vertex="1" parent="1">
          <mxGeometry x="875" y="625" width="100" height="40" as="geometry" />
        </mxCell>
        <mxCell id="tier1-automation" value="Fully Automated&#xa;Zero-Touch Recovery" style="rounded=1;whiteSpace=wrap;html=1;fillColor=#FFF;strokeColor=#666;strokeWidth=1;fontSize=9;" vertex="1" parent="1">
          <mxGeometry x="975" y="625" width="100" height="40" as="geometry" />
        </mxCell>
        
        <!-- Tier 2 Row -->
        <mxCell id="tier2-row-label" value="Tier 2" style="rounded=1;whiteSpace=wrap;html=1;fillColor=#FFE0B2;strokeColor=#F57C00;strokeWidth=1;fontSize=11;fontStyle=1;" vertex="1" parent="1">
          <mxGeometry x="385" y="675" width="100" height="40" as="geometry" />
        </mxCell>
        <mxCell id="tier2-compute" value="Standard SSD&#xa;Standard Instances&#xa;Warm Standby" style="rounded=1;whiteSpace=wrap;html=1;fillColor=#FFF;strokeColor=#666;strokeWidth=1;fontSize=9;" vertex="1" parent="1">
          <mxGeometry x="485" y="675" width="130" height="40" as="geometry" />
        </mxCell>
        <mxCell id="tier2-storage" value="Standard Storage&#xa;Near-Sync Replication&#xa;Daily Backups" style="rounded=1;whiteSpace=wrap;html=1;fillColor=#FFF;strokeColor=#666;strokeWidth=1;fontSize=9;" vertex="1" parent="1">
          <mxGeometry x="615" y="675" width="130" height="40" as="geometry" />
        </mxCell>
        <mxCell id="tier2-network" value="Shared Firewall&#xa;Service Endpoints&#xa;WAF Standard" style="rounded=1;whiteSpace=wrap;html=1;fillColor=#FFF;strokeColor=#666;strokeWidth=1;fontSize=9;" vertex="1" parent="1">
          <mxGeometry x="745" y="675" width="130" height="40" as="geometry" />
        </mxCell>
        <mxCell id="tier2-cost" value="$5,000-&#xa;15,000/month" style="rounded=1;whiteSpace=wrap;html=1;fillColor=#FFF;strokeColor=#666;strokeWidth=1;fontSize=9;fontStyle=1;" vertex="1" parent="1">
          <mxGeometry x="875" y="675" width="100" height="40" as="geometry" />
        </mxCell>
        <mxCell id="tier2-automation" value="Semi-Automated&#xa;Manual Approval" style="rounded=1;whiteSpace=wrap;html=1;fillColor=#FFF;strokeColor=#666;strokeWidth=1;fontSize=9;" vertex="1" parent="1">
          <mxGeometry x="975" y="675" width="100" height="40" as="geometry" />
        </mxCell>
        
        <!-- Tier 3 Row -->
        <mxCell id="tier3-row-label" value="Tier 3" style="rounded=1;whiteSpace=wrap;html=1;fillColor=#C8E6C9;strokeColor=#388E3C;strokeWidth=1;fontSize=11;fontStyle=1;" vertex="1" parent="1">
          <mxGeometry x="385" y="725" width="100" height="40" as="geometry" />
        </mxCell>
        <mxCell id="tier3-compute" value="Standard HDD&#xa;Basic Instances&#xa;Cold Standby" style="rounded=1;whiteSpace=wrap;html=1;fillColor=#FFF;strokeColor=#666;strokeWidth=1;fontSize=9;" vertex="1" parent="1">
          <mxGeometry x="485" y="725" width="130" height="40" as="geometry" />
        </mxCell>
        <mxCell id="tier3-storage" value="Standard Storage&#xa;Async Replication&#xa;Weekly Backups" style="rounded=1;whiteSpace=wrap;html=1;fillColor=#FFF;strokeColor=#666;strokeWidth=1;fontSize=9;" vertex="1" parent="1">
          <mxGeometry x="615" y="725" width="130" height="40" as="geometry" />
        </mxCell>
        <mxCell id="tier3-network" value="Shared Resources&#xa;NSG Rules&#xa;Basic Protection" style="rounded=1;whiteSpace=wrap;html=1;fillColor=#FFF;strokeColor=#666;strokeWidth=1;fontSize=9;" vertex="1" parent="1">
          <mxGeometry x="745" y="725" width="130" height="40" as="geometry" />
        </mxCell>
        <mxCell id="tier3-cost" value="$1,000-&#xa;5,000/month" style="rounded=1;whiteSpace=wrap;html=1;fillColor=#FFF;strokeColor=#666;strokeWidth=1;fontSize=9;fontStyle=1;" vertex="1" parent="1">
          <mxGeometry x="875" y="725" width="100" height="40" as="geometry" />
        </mxCell>
        <mxCell id="tier3-automation" value="Manual Process&#xa;Scheduled Recovery" style="rounded=1;whiteSpace=wrap;html=1;fillColor=#FFF;strokeColor=#666;strokeWidth=1;fontSize=9;" vertex="1" parent="1">
          <mxGeometry x="975" y="725" width="100" height="40" as="geometry" />
        </mxCell>
        
        <!-- Tier 4 Row -->
        <mxCell id="tier4-row-label" value="Tier 4" style="rounded=1;whiteSpace=wrap;html=1;fillColor=#E1F5FE;strokeColor=#0277BD;strokeWidth=1;fontSize=11;fontStyle=1;" vertex="1" parent="1">
          <mxGeometry x="385" y="775" width="100" height="40" as="geometry" />
        </mxCell>
        <mxCell id="tier4-compute" value="Archive Storage&#xa;No Standby&#xa;Backup Only" style="rounded=1;whiteSpace=wrap;html=1;fillColor=#FFF;strokeColor=#666;strokeWidth=1;fontSize=9;" vertex="1" parent="1">
          <mxGeometry x="485" y="775" width="130" height="40" as="geometry" />
        </mxCell>
        <mxCell id="tier4-storage" value="Cool/Archive Tier&#xa;Backup Only&#xa;Monthly Backups" style="rounded=1;whiteSpace=wrap;html=1;fillColor=#FFF;strokeColor=#666;strokeWidth=1;fontSize=9;" vertex="1" parent="1">
          <mxGeometry x="615" y="775" width="130" height="40" as="geometry" />
        </mxCell>
        <mxCell id="tier4-network" value="Basic Connectivity&#xa;Standard NSG&#xa;No WAF" style="rounded=1;whiteSpace=wrap;html=1;fillColor=#FFF;strokeColor=#666;strokeWidth=1;fontSize=9;" vertex="1" parent="1">
          <mxGeometry x="745" y="775" width="130" height="40" as="geometry" />
        </mxCell>
        <mxCell id="tier4-cost" value="$100-&#xa;1,000/month" style="rounded=1;whiteSpace=wrap;html=1;fillColor=#FFF;strokeColor=#666;strokeWidth=1;fontSize=9;fontStyle=1;" vertex="1" parent="1">
          <mxGeometry x="875" y="775" width="100" height="40" as="geometry" />
        </mxCell>
        <mxCell id="tier4-automation" value="Manual Recovery&#xa;Best Effort" style="rounded=1;whiteSpace=wrap;html=1;fillColor=#FFF;strokeColor=#666;strokeWidth=1;fontSize=9;" vertex="1" parent="1">
          <mxGeometry x="975" y="775" width="100" height="40" as="geometry" />
        </mxCell>
        
        <!-- Business Impact Assessment -->
        <mxCell id="bia-title" value="Business Impact Assessment Framework" style="text;html=1;strokeColor=none;fillColor=none;align=center;verticalAlign=middle;whiteSpace=wrap;rounded=0;fontSize=16;fontStyle=1;fontColor=#2F5496;" vertex="1" parent="1">
          <mxGeometry x="1080" y="100" width="300" height="25" as="geometry" />
        </mxCell>
        
        <!-- BIA Factors -->
        <mxCell id="bia-factors" value="" style="rounded=1;whiteSpace=wrap;html=1;fillColor=#F8F9FA;strokeColor=#666666;strokeWidth=2;" vertex="1" parent="1">
          <mxGeometry x="1080" y="140" width="300" height="360" as="geometry" />
        </mxCell>
        
        <!-- Financial Impact -->
        <mxCell id="financial-impact" value="💰 Financial Impact Assessment" style="text;html=1;strokeColor=#2E7D32;fillColor=#C8E6C9;align=center;verticalAlign=middle;whiteSpace=wrap;rounded=1;fontSize=12;fontStyle=1;" vertex="1" parent="1">
          <mxGeometry x="1100" y="160" width="260" height="25" as="geometry" />
        </mxCell>
        <mxCell id="financial-details" value="• Revenue loss per hour&#xa;• Customer penalty costs&#xa;• Regulatory fine exposure&#xa;• Brand reputation impact&#xa;• Recovery resource costs&#xa;• Legal liability exposure" style="text;html=1;strokeColor=none;fillColor=none;align=left;verticalAlign=middle;whiteSpace=wrap;rounded=0;fontSize=10;" vertex="1" parent="1">
          <mxGeometry x="1110" y="190" width="240" height="70" as="geometry" />
        </mxCell>
        
        <!-- Operational Impact -->
        <mxCell id="operational-impact" value="⚙️ Operational Impact Assessment" style="text;html=1;strokeColor=#F57C00;fillColor=#FFE0B2;align=center;verticalAlign=middle;whiteSpace=wrap;rounded=1;fontSize=12;fontStyle=1;" vertex="1" parent="1">
          <mxGeometry x="1100" y="270" width="260" height="25" as="geometry" />
        </mxCell>
        <mxCell id="operational-details" value="• Employee productivity loss&#xa;• Customer service disruption&#xa;• Supply chain interruption&#xa;• Partner relationship impact&#xa;• Data integrity requirements&#xa;• Compliance obligations" style="text;html=1;strokeColor=none;fillColor=none;align=left;verticalAlign=middle;whiteSpace=wrap;rounded=0;fontSize=10;" vertex="1" parent="1">
          <mxGeometry x="1110" y="300" width="240" height="70" as="geometry" />
        </mxCell>
        
        <!-- Technical Dependencies -->
        <mxCell id="technical-dependencies" value="🔧 Technical Dependencies" style="text;html=1;strokeColor=#0277BD;fillColor=#E1F5FE;align=center;verticalAlign=middle;whiteSpace=wrap;rounded=1;fontSize=12;fontStyle=1;" vertex="1" parent="1">
          <mxGeometry x="1100" y="380" width="260" height="25" as="geometry" />
        </mxCell>
        <mxCell id="technical-details" value="• Upstream system dependencies&#xa;• Database transaction volumes&#xa;• Integration API requirements&#xa;• Network bandwidth needs&#xa;• Security control dependencies&#xa;• Monitoring/alerting systems" style="text;html=1;strokeColor=none;fillColor=none;align=left;verticalAlign=middle;whiteSpace=wrap;rounded=0;fontSize=10;" vertex="1" parent="1">
          <mxGeometry x="1110" y="410" width="240" height="70" as="geometry" />
        </mxCell>
        
        <!-- Cost Optimization Strategy -->
        <mxCell id="cost-optimization" value="💡 Cost Optimization Strategy" style="text;html=1;strokeColor=#2F5496;fillColor=#E3F2FD;align=center;verticalAlign=middle;whiteSpace=wrap;rounded=1;fontSize=14;fontStyle=1;" vertex="1" parent="1">
          <mxGeometry x="1080" y="530" width="300" height="30" as="geometry" />
        </mxCell>
        <mxCell id="cost-details" value="✓ Tiered resource allocation saves 60% vs uniform approach&#xa;✓ Shared ingress infrastructure reduces costs by 20%&#xa;✓ Automated scaling based on business priorities&#xa;✓ Reserved instance optimization for Tier 1 applications&#xa;✓ Archive storage for long-term compliance&#xa;✓ Cross-region replication only for critical tiers" style="text;html=1;strokeColor=none;fillColor=none;align=left;verticalAlign=middle;whiteSpace=wrap;rounded=0;fontSize=10;" vertex="1" parent="1">
          <mxGeometry x="1100" y="570" width="260" height="100" as="geometry" />
        </mxCell>
        
        <!-- Recovery Testing Schedule -->
        <mxCell id="testing-schedule" value="🧪 Recovery Testing Schedule" style="text;html=1;strokeColor=#7B1FA2;fillColor=#F3E5F5;align=center;verticalAlign=middle;whiteSpace=wrap;rounded=1;fontSize=14;fontStyle=1;" vertex="1" parent="1">
          <mxGeometry x="1080" y="690" width="300" height="30" as="geometry" />
        </mxCell>
        <mxCell id="testing-details" value="• Tier 1: Monthly full DR tests&#xa;• Tier 2: Quarterly component tests&#xa;• Tier 3: Semi-annual backup verification&#xa;• Tier 4: Annual compliance validation&#xa;• Automated testing for all critical paths&#xa;• Business stakeholder validation required" style="text;html=1;strokeColor=none;fillColor=none;align=left;verticalAlign=middle;whiteSpace=wrap;rounded=0;fontSize=10;" vertex="1" parent="1">
          <mxGeometry x="1100" y="730" width="260" height="90" as="geometry" />
        </mxCell>
        
        <!-- Decision Matrix -->
        <mxCell id="decision-matrix-title" value="Application Tier Classification Decision Matrix" style="text;html=1;strokeColor=none;fillColor=none;align=center;verticalAlign=middle;whiteSpace=wrap;rounded=0;fontSize=16;fontStyle=1;fontColor=#2F5496;" vertex="1" parent="1">
          <mxGeometry x="20" y="300" width="320" height="25" as="geometry" />
        </mxCell>
        
        <!-- Decision Criteria -->
        <mxCell id="decision-criteria" value="" style="rounded=1;whiteSpace=wrap;html=1;fillColor=#F8F9FA;strokeColor=#666666;strokeWidth=2;" vertex="1" parent="1">
          <mxGeometry x="20" y="340" width="320" height="360" as="geometry" />
        </mxCell>
        
        <!-- Revenue Impact Criteria -->
        <mxCell id="revenue-criteria" value="💰 Revenue Impact per Hour" style="text;html=1;strokeColor=#D32F2F;fillColor=#FFCDD2;align=center;verticalAlign=middle;whiteSpace=wrap;rounded=1;fontSize=12;fontStyle=1;" vertex="1" parent="1">
          <mxGeometry x="35" y="355" width="290" height="25" as="geometry" />
        </mxCell>
        <mxCell id="revenue-breakdown" value="• Tier 1: $1M+ (Core revenue systems)&#xa;• Tier 2: $100K-1M (Supporting business)&#xa;• Tier 3: $10K-100K (Productivity impact)&#xa;• Tier 4: &lt;$10K (Minimal impact)" style="text;html=1;strokeColor=none;fillColor=none;align=left;verticalAlign=middle;whiteSpace=wrap;rounded=0;fontSize=10;" vertex="1" parent="1">
          <mxGeometry x="45" y="385" width="270" height="55" as="geometry" />
        </mxCell>
        
        <!-- User Impact Criteria -->
        <mxCell id="user-criteria" value="👥 User Impact Scale" style="text;html=1;strokeColor=#F57C00;fillColor=#FFE0B2;align=center;verticalAlign=middle;whiteSpace=wrap;rounded=1;fontSize=12;fontStyle=1;" vertex="1" parent="1">
          <mxGeometry x="35" y="450" width="290" height="25" as="geometry" />
        </mxCell>
        <mxCell id="user-breakdown" value="• Tier 1: 10,000+ (External customers)&#xa;• Tier 2: 1,000-10,000 (Internal/partners)&#xa;• Tier 3: 100-1,000 (Department level)&#xa;• Tier 4: &lt;100 (Individual/team level)" style="text;html=1;strokeColor=none;fillColor=none;align=left;verticalAlign=middle;whiteSpace=wrap;rounded=0;fontSize=10;" vertex="1" parent="1">
          <mxGeometry x="45" y="480" width="270" height="55" as="geometry" />
        </mxCell>
        
        <!-- Regulatory Impact -->
        <mxCell id="regulatory-criteria" value="📋 Regulatory &amp; Compliance" style="text;html=1;strokeColor=#388E3C;fillColor=#C8E6C9;align=center;verticalAlign=middle;whiteSpace=wrap;rounded=1;fontSize=12;fontStyle=1;" vertex="1" parent="1">
          <mxGeometry x="35" y="545" width="290" height="25" as="geometry" />
        </mxCell>
        <mxCell id="regulatory-breakdown" value="• Tier 1: SOX, PCI DSS critical systems&#xa;• Tier 2: GDPR, industry regulations&#xa;• Tier 3: Internal compliance requirements&#xa;• Tier 4: Basic data retention policies" style="text;html=1;strokeColor=none;fillColor=none;align=left;verticalAlign=middle;whiteSpace=wrap;rounded=0;fontSize=10;" vertex="1" parent="1">
          <mxGeometry x="45" y="575" width="270" height="55" as="geometry" />
        </mxCell>
        
        <!-- Technology Dependencies -->
        <mxCell id="tech-dep-criteria" value="🔧 Technology Dependencies" style="text;html=1;strokeColor=#0277BD;fillColor=#E1F5FE;align=center;verticalAlign=middle;whiteSpace=wrap;rounded=1;fontSize=12;fontStyle=1;" vertex="1" parent="1">
          <mxGeometry x="35" y="640" width="290" height="25" as="geometry" />
        </mxCell>
        <mxCell id="tech-dep-breakdown" value="• Tier 1: Zero downstream dependencies&#xa;• Tier 2: Limited integration dependencies&#xa;• Tier 3: Standard system integrations&#xa;• Tier 4: Can operate independently" style="text;html=1;strokeColor=none;fillColor=none;align=left;verticalAlign=middle;whiteSpace=wrap;rounded=0;fontSize=10;" vertex="1" parent="1">
          <mxGeometry x="45" y="670" width="270" height="55" as="geometry" />
        </mxCell>
        
        <!-- Version and Metadata -->
        <mxCell id="metadata" value="Framework: Business Continuity Guide Aligned&#xa;Version: 1.0 | Updated: January 2024&#xa;Standard: Azure Well-Architected Framework&#xa;Cost Model: Tiered Resource Allocation (60% savings)" style="text;html=1;strokeColor=#37474F;fillColor=#ECEFF1;align=left;verticalAlign=middle;whiteSpace=wrap;rounded=1;fontSize=9;" vertex="1" parent="1">
          <mxGeometry x="1400" y="100" width="240" height="60" as="geometry" />
        </mxCell>
        
        <!-- Recovery Time Matrix -->
        <mxCell id="recovery-matrix" value="⏱️ Recovery Time Objectives&#xa;Tier 1: RTO ≤ 2hr, RPO ≤ 15min&#xa;Tier 2: RTO 2-8hr, RPO 1-4hr&#xa;Tier 3: RTO 8-24hr, RPO 4-8hr&#xa;Tier 4: RTO 24-72hr, RPO 8-24hr" style="text;html=1;strokeColor=#1565C0;fillColor=#E3F2FD;align=left;verticalAlign=middle;whiteSpace=wrap;rounded=1;fontSize=10;fontStyle=1;" vertex="1" parent="1">
          <mxGeometry x="1400" y="180" width="240" height="80" as="geometry" />
        </mxCell>
        
        <!-- Architecture Patterns -->
        <mxCell id="arch-patterns" value="🏗️ Architecture Patterns&#xa;• Active-Active (Tier 1)&#xa;• Active-Passive (Tier 2)&#xa;• Backup-Restore (Tier 3)&#xa;• Archive-Only (Tier 4)&#xa;• Cross-region replication&#xa;• Automated failover" style="text;html=1;strokeColor=#2E7D32;fillColor=#C8E6C9;align=left;verticalAlign=middle;whiteSpace=wrap;rounded=1;fontSize=10;" vertex="1" parent="1">
          <mxGeometry x="1400" y="280" width="240" height="100" as="geometry" />
        </mxCell>
      </root>
    </mxGraphModel>
  </diagram>
</mxfile>